<svg height="798" width="720" xmlns="http://www.w3.org/2000/svg">
<rect height="798" fill="#555" width="720"></rect>
<text fill="#7f7" font-family="Courier New" font-size="12" xml:space="preserve">
<tspan x="10" y="26">10 megabytes installed</tspan>
<tspan x="10" y="42"></tspan>
<tspan x="10" y="58">node_modules</tspan>
<tspan x="10" y="74">└─┬ ml@2.0.0 </tspan>
<tspan x="10" y="90">  ├── binary-search@1.3.2 </tspan>
<tspan x="10" y="106">  ├── ml-array-utils@0.3.0 </tspan>
<tspan x="10" y="122">  ├── ml-bit-array@1.0.0 </tspan>
<tspan x="10" y="138">  ├─┬ ml-cross-validation@1.0.1 </tspan>
<tspan x="10" y="154">  │ └── ml-combinations@1.0.1 </tspan>
<tspan x="10" y="170">  ├── ml-curve-fitting@0.0.7 </tspan>
<tspan x="10" y="186">  ├─┬ ml-distance@2.1.1 </tspan>
<tspan x="10" y="202">  │ ├── ml-distance-euclidean@1.0.0 </tspan>
<tspan x="10" y="218">  │ └── ml-tree-similarity@0.0.0 </tspan>
<tspan x="10" y="234">  ├── ml-distance-matrix@1.0.0 </tspan>
<tspan x="10" y="250">  ├── ml-fnn@3.0.0 </tspan>
<tspan x="10" y="266">  ├─┬ ml-hash-table@0.2.1 </tspan>
<tspan x="10" y="282">  │ └── new-array@1.0.0 </tspan>
<tspan x="10" y="298">  ├─┬ ml-hclust@1.3.0 </tspan>
<tspan x="10" y="314">  │ └── heap@0.2.6 </tspan>
<tspan x="10" y="330">  ├─┬ ml-kernel@2.3.2 </tspan>
<tspan x="10" y="346">  │ ├── ml-kernel-gaussian@2.0.1 </tspan>
<tspan x="10" y="362">  │ ├── ml-kernel-polynomial@2.0.0 </tspan>
<tspan x="10" y="378">  │ └── ml-kernel-sigmoid@1.0.0 </tspan>
<tspan x="10" y="394">  ├─┬ ml-kmeans@3.0.0 </tspan>
<tspan x="10" y="410">  │ ├── ml-nearest-vector@1.0.1 </tspan>
<tspan x="10" y="426">  │ └── RandomSelection@1.0.1 </tspan>
<tspan x="10" y="442">  ├── ml-knn@1.0.0 </tspan>
<tspan x="10" y="458">  ├── ml-matrix@2.3.0 </tspan>
<tspan x="10" y="474">  ├── ml-naivebayes@1.0.3 </tspan>
<tspan x="10" y="490">  ├── ml-optimize-lorentzian@0.1.4 </tspan>
<tspan x="10" y="506">  ├─┬ ml-pad-array@1.0.0 </tspan>
<tspan x="10" y="522">  │ └── extend@3.0.0 </tspan>
<tspan x="10" y="538">  ├── ml-pca@1.1.2 </tspan>
<tspan x="10" y="554">  ├── ml-performance@0.2.0 </tspan>
<tspan x="10" y="570">  ├── ml-pls@0.1.1 </tspan>
<tspan x="10" y="586">  ├─┬ ml-regression@4.2.0 </tspan>
<tspan x="10" y="602">  │ └─┬ is-integer@1.0.6 </tspan>
<tspan x="10" y="618">  │   └── is-finite@1.0.2 </tspan>
<tspan x="10" y="634">  ├── ml-savitzky-golay@2.0.4 </tspan>
<tspan x="10" y="650">  ├─┬ ml-savitzky-golay-generalized@1.1.0 </tspan>
<tspan x="10" y="666">  │ └── ml-stat@1.1.0 </tspan>
<tspan x="10" y="682">  ├── ml-som@0.0.6 </tspan>
<tspan x="10" y="698">  ├── ml-sparse-matrix@0.2.1 </tspan>
<tspan x="10" y="714">  ├── ml-stat@1.3.3 </tspan>
<tspan x="10" y="730">  ├── ml-svm@2.1.2 </tspan>
<tspan x="10" y="746">  ├── ml-xsadd@1.0.0 </tspan>
<tspan x="10" y="762">  └─┬ num-sort@1.0.0 </tspan>
<tspan x="10" y="778">    └── number-is-nan@1.0.1</tspan>
</text>
</svg>
